<svg width="2000" height="600" viewBox="0 0 2000 600" fill="none" xmlns="http://www.w3.org/2000/svg">
<path fill-rule="evenodd" clip-rule="evenodd" d="M346.387 38.0336C351.663 36.4404 357.361 38.4914 360.411 43.0822L460.411 193.582C464.232 199.332 462.668 207.091 456.918 210.911C451.168 214.732 443.409 213.168 439.589 207.418L362.5 91.3992V400C362.5 405.508 358.894 410.367 353.622 411.964C348.35 413.56 342.655 411.517 339.599 406.934L239.599 256.934C235.77 251.19 237.322 243.429 243.066 239.599C248.81 235.77 256.571 237.322 260.401 243.066L337.5 358.715V50C337.5 44.4881 341.11 39.6268 346.387 38.0336Z" fill="#4930AA"/>
<path fill-rule="evenodd" clip-rule="evenodd" d="M200 262.5C122.842 262.5 62.5 323.991 62.5 400C62.5 476.009 122.842 537.5 200 537.5C261.208 537.5 315.157 498.927 334.235 445.777C336.567 439.279 343.725 435.903 350.223 438.235C356.721 440.567 360.097 447.725 357.765 454.223C335.019 517.593 271.447 562.5 200 562.5C108.895 562.5 37.5 489.676 37.5 400C37.5 310.324 108.895 237.5 200 237.5C206.904 237.5 212.5 243.096 212.5 250C212.5 256.904 206.904 262.5 200 262.5Z" fill="#120C2A"/>
<path d="M1855.97 414.4C1803.57 414.4 1760.57 371.6 1760.57 319.2C1760.57 266.2 1803.57 223.6 1855.97 223.6C1908.17 223.6 1950.37 265.4 1951.17 317.8V399C1951.17 406.2 1945.57 412 1938.37 412C1931.17 412 1925.97 406.2 1925.97 399L1925.77 381.8C1908.37 401.2 1883.57 414.4 1855.97 414.4ZM1855.97 389.2C1895.57 389.2 1925.97 357.4 1925.97 319.2C1925.97 280.2 1895.37 249 1855.97 249C1816.97 249 1785.77 280.2 1785.77 319.2C1785.77 357.4 1816.77 389.2 1855.97 389.2Z" fill="#120C2A"/>
<path d="M1670.71 414.2C1618.31 414.2 1575.71 372.6 1575.71 320.2V318.2C1575.71 265.8 1618.31 223.2 1670.71 223.2C1694.91 223.2 1719.11 232.4 1734.91 248.4C1737.91 251.4 1739.51 255.2 1739.51 258.6C1739.51 265.2 1733.71 271.2 1726.91 271.2C1722.71 271.2 1718.51 268.8 1715.51 266C1702.11 254.2 1686.51 248.8 1669.51 248.8C1631.71 248.8 1601.31 281 1601.31 318.2V319.6C1601.31 357.2 1631.71 388.6 1669.51 388.6C1686.51 388.6 1702.11 383.6 1715.51 371.6C1718.51 368.8 1722.51 366.2 1726.91 366.2C1733.51 366.2 1739.51 372.2 1739.51 378.6C1739.51 382.2 1737.91 386 1734.91 389C1719.11 405 1694.91 414.2 1670.71 414.2Z" fill="#120C2A"/>
<path d="M1458.91 414.4C1406.31 414.4 1363.51 371.8 1363.51 319C1363.51 266.4 1406.31 223.8 1458.91 223.8C1511.31 223.8 1554.11 266 1554.51 318.4C1554.51 325.4 1549.51 330.6 1542.31 330.6H1391.31C1395.51 364 1424.11 390 1458.91 390C1480.11 390 1495.91 379 1509.11 367.6C1515.51 362 1522.91 363.8 1527.31 369.8C1531.11 375 1530.91 381.8 1525.31 386.8C1509.31 400.8 1489.11 414.4 1458.91 414.4ZM1390.71 309.4H1528.71C1525.11 274.6 1495.51 247.8 1459.31 247.8C1423.11 247.8 1394.11 275 1390.71 309.4Z" fill="#120C2A"/>
<path d="M1298.17 412C1291.37 412 1285.77 406.6 1285.77 399.6V249H1263.77C1256.77 249 1251.17 243.4 1251.17 236.2C1251.17 229.4 1256.77 223.8 1263.77 223.8H1285.77V168.4C1285.77 161.2 1291.37 156 1298.17 156C1305.17 156 1310.77 161.2 1310.77 168.4V223.8H1337.37C1344.57 223.8 1349.97 229.4 1349.97 236.2C1349.97 243.6 1344.57 249 1337.37 249H1310.77V399.6C1310.77 406.6 1305.17 412 1298.17 412Z" fill="#120C2A"/>
<path d="M1211.73 195.6C1203.53 195.6 1196.73 188.6 1196.73 180.6C1196.73 171.8 1203.53 165.2 1211.73 165.2C1220.33 165.2 1227.33 171.8 1227.33 180.6C1227.33 188.6 1220.33 195.6 1211.73 195.6ZM1211.93 412C1205.13 412 1199.33 406.4 1199.33 399.2V236.2C1199.33 229.2 1205.13 223.6 1212.13 223.6C1219.13 223.6 1224.53 229.2 1224.53 236.2V399.2C1224.53 406.4 1218.93 412 1211.93 412Z" fill="#120C2A"/>
<path d="M1100.75 414.2C1073.75 414.2 1046.75 403.6 1035.35 381.2C1033.95 378.6 1033.35 376.2 1033.35 374C1033.35 367.6 1038.55 363.2 1044.75 363.2C1048.55 363.2 1053.35 364.6 1056.15 369.2C1065.55 385 1079.75 392 1100.75 392C1121.55 392 1141.35 379.8 1141.35 361C1141.35 340.8 1119.15 333 1095.15 326.4C1065.75 317 1037.55 304.4 1037.55 273.8C1037.55 241 1068.95 223.4 1099.55 223.4C1122.75 223.4 1145.75 232.2 1155.55 250.8C1156.55 252.8 1156.95 254.8 1156.95 256.6C1156.95 262.4 1151.75 267.2 1145.95 267.2C1144.35 267.2 1142.55 267.4 1140.15 264.6C1129.95 253.2 1118.55 245.6 1101.35 245.6C1082.75 245.6 1062.75 253 1062.75 273.2C1062.75 291.6 1080.75 298.8 1101.95 305.2C1135.95 315.6 1165.75 326.8 1165.75 360C1165.75 390.8 1136.95 414.2 1100.75 414.2Z" fill="#120C2A"/>
<path d="M988.175 412.2C980.975 412.2 975.775 406.6 975.775 399.4V378C960.175 398.4 937.575 412 913.175 412C866.975 412 837.575 376 837.575 320V236C837.575 228.8 842.975 223.6 850.375 223.6C857.175 223.6 862.575 228.8 862.575 236V320.8C862.775 363.2 882.775 386.8 915.975 386.8C949.175 386.8 975.775 358.2 975.775 321V236.4C975.775 229.4 981.175 223.6 988.175 223.6C994.975 223.6 1000.78 229.4 1000.78 236.4V399.4C1000.78 406.6 995.175 412.2 988.175 412.2Z" fill="#120C2A"/>
<path d="M563.6 412C556.8 412 551 406.4 551 399.2V236.2C551 229.2 556.8 223.6 563.8 223.6C570.8 223.6 576.2 229.2 576.2 236.2V246.6C587.8 232.8 604 223.4 622.4 223.4C645.2 223.4 664.2 234.8 675.4 252.2C689.2 234.8 711.4 223.4 733.8 223.4C770.8 223.4 798 254 798 289.6V399.4C798 406.6 792.4 412 785.6 412C778.8 412 772.8 406.6 772.8 399.4V289.2C772.6 266 754 248.8 731.6 248.8C708.4 248.8 686.8 268 686.8 290.4V399.4C686.8 406.6 681.4 412 674.6 412C667.8 412 661.8 406.6 661.8 399.4V288.4C661 265.6 643 248.8 620.8 248.8C597.6 248.8 576.2 267.8 576.2 290.2V399.2C576.2 406.4 570.6 412 563.6 412Z" fill="#120C2A"/>
</svg>
